<?xml version="1.0" encoding="UTF-8" standalone="no"?>
<!-- Created with Inkscape (http://www.inkscape.org/) -->

<svg
   width="700"
   height="700"
   viewBox="0 0 185.20833 185.20833"
   version="1.1"
   id="svg1"
   inkscape:export-filename="bitmap.png"
   inkscape:export-xdpi="8.2285719"
   inkscape:export-ydpi="8.2285719"
   inkscape:version="1.3.2 (091e20e, 2023-11-25, custom)"
   sodipodi:docname="btr.svg"
   xmlns:inkscape="http://www.inkscape.org/namespaces/inkscape"
   xmlns:sodipodi="http://sodipodi.sourceforge.net/DTD/sodipodi-0.dtd"
   xmlns="http://www.w3.org/2000/svg"
   xmlns:svg="http://www.w3.org/2000/svg">
  <sodipodi:namedview
     id="namedview1"
     pagecolor="#505050"
     bordercolor="#ffffff"
     borderopacity="1"
     inkscape:showpageshadow="0"
     inkscape:pageopacity="0"
     inkscape:pagecheckerboard="1"
     inkscape:deskcolor="#505050"
     inkscape:document-units="mm"
     showgrid="false"
     inkscape:export-bgcolor="#ffffff00"
     inkscape:zoom="1.15"
     inkscape:cx="289.13043"
     inkscape:cy="349.13043"
     inkscape:window-width="1853"
     inkscape:window-height="1057"
     inkscape:window-x="-8"
     inkscape:window-y="-8"
     inkscape:window-maximized="1"
     inkscape:current-layer="layer1">
    <inkscape:grid
       id="grid1"
       units="mm"
       originx="0"
       originy="0"
       spacingx="0.99999998"
       spacingy="0.99999998"
       empcolor="#0099e5"
       empopacity="0.30196078"
       color="#0099e5"
       opacity="0.14901961"
       empspacing="5"
       dotted="false"
       gridanglex="30"
       gridanglez="30"
       visible="false" />
  </sodipodi:namedview>
  <defs
     id="defs1">
    <inkscape:path-effect
       effect="fillet_chamfer"
       id="path-effect21"
       is_visible="true"
       lpeversion="1"
       nodesatellites_param="F,0,1,1,0,1.9999984,0,1 @ F,0,1,1,0,1.9999984,0,1 @ F,0,0,1,0,1.9999984,0,1 @ F,0,1,1,0,1.9999984,0,1"
       radius="0"
       unit="px"
       method="auto"
       mode="F"
       chamfer_steps="1"
       flexible="false"
       use_knot_distance="true"
       apply_no_radius="true"
       apply_with_radius="true"
       only_selected="false"
       hide_knots="false" />
    <inkscape:path-effect
       effect="fillet_chamfer"
       id="path-effect19"
       is_visible="true"
       lpeversion="1"
       nodesatellites_param="F,0,1,1,0,1.9999984,0,1 @ F,0,1,1,0,1.9999984,0,1 @ F,0,0,1,0,1.9999984,0,1 @ F,0,1,1,0,1.9999984,0,1"
       radius="0"
       unit="px"
       method="auto"
       mode="F"
       chamfer_steps="1"
       flexible="false"
       use_knot_distance="true"
       apply_no_radius="true"
       apply_with_radius="true"
       only_selected="false"
       hide_knots="false" />
    <inkscape:path-effect
       effect="fillet_chamfer"
       id="path-effect17"
       is_visible="true"
       lpeversion="1"
       nodesatellites_param="F,0,1,1,0,6.9999998,0,1 @ F,0,1,1,0,6.9999998,0,1 @ F,0,1,1,0,6.9999998,0,1 @ F,0,0,1,0,6.9999998,0,1"
       radius="0"
       unit="px"
       method="auto"
       mode="F"
       chamfer_steps="1"
       flexible="false"
       use_knot_distance="true"
       apply_no_radius="true"
       apply_with_radius="true"
       only_selected="false"
       hide_knots="false" />
    <inkscape:path-effect
       effect="fillet_chamfer"
       id="path-effect15"
       is_visible="true"
       lpeversion="1"
       nodesatellites_param="F,0,1,1,0,6.9999998,0,1 @ F,0,1,1,0,6.9999998,0,1 @ F,0,1,1,0,6.9999998,0,1 @ F,0,0,1,0,6.9999998,0,1"
       radius="0"
       unit="px"
       method="auto"
       mode="F"
       chamfer_steps="1"
       flexible="false"
       use_knot_distance="true"
       apply_no_radius="true"
       apply_with_radius="true"
       only_selected="false"
       hide_knots="false" />
    <inkscape:path-effect
       effect="fillet_chamfer"
       id="path-effect13"
       is_visible="true"
       lpeversion="1"
       nodesatellites_param="F,0,0,1,0,2.9999998,0,1 @ F,0,0,1,0,3.0000002,0,1 @ F,0,0,1,0,2.9999981,0,1 @ F,0,0,1,0,2.9999996,0,1"
       radius="0"
       unit="px"
       method="auto"
       mode="F"
       chamfer_steps="1"
       flexible="false"
       use_knot_distance="true"
       apply_no_radius="true"
       apply_with_radius="true"
       only_selected="false"
       hide_knots="false" />
    <inkscape:path-effect
       effect="fillet_chamfer"
       id="path-effect11"
       is_visible="true"
       lpeversion="1"
       nodesatellites_param="F,0,0,1,0,0,0,1 @ F,0,0,1,0,2.8284292,0,1 @ F,0,0,1,0,3.0000001,0,1 @ F,0,0,1,0,0,0,1 @ F,0,0,1,0,2.8284292,0,1 @ F,0,0,1,0,2.8284292,0,1 @ F,0,0,1,0,0,0,1 @ F,0,0,1,0,0,0,1 @ F,0,0,1,0,2.8284292,0,1 @ F,0,0,1,0,2.8284292,0,1 @ F,0,0,1,0,0,0,1 @ F,0,0,1,0,2.8284292,0,1 @ F,0,0,1,0,2.8284292,0,1 @ F,0,0,1,0,0,0,1 @ F,0,1,1,0,3.0000001,0,1 @ F,0,1,1,0,3.0000001,0,1 @ F,0,1,1,0,3.0000001,0,1 @ F,0,0,1,0,0,0,1 @ F,0,1,1,0,3.0000001,0,1 @ F,0,1,1,0,3.0000001,0,1 @ F,0,0,1,0,0,0,1 @ F,0,0,1,0,0,0,1 @ F,0,1,1,0,3.0000001,0,1 @ F,0,1,1,0,3.0000001,0,1 @ F,0,0,1,0,0,0,1 @ F,0,1,1,0,3.0000001,0,1 @ F,0,1,1,0,3.0000001,0,1 @ F,0,0,1,0,0,0,1"
       radius="0"
       unit="px"
       method="auto"
       mode="F"
       chamfer_steps="1"
       flexible="false"
       use_knot_distance="true"
       apply_no_radius="true"
       apply_with_radius="true"
       only_selected="false"
       hide_knots="false" />
    <inkscape:path-effect
       effect="fillet_chamfer"
       id="path-effect10"
       is_visible="true"
       lpeversion="1"
       nodesatellites_param="F,0,1,1,0,1.4142133,0,1 @ F,0,1,1,0,1.4142133,0,1 @ F,0,1,1,0,1.4142133,0,1 @ F,0,1,1,0,1.4142133,0,1 @ F,0,1,1,0,1.4142133,0,1 @ F,0,1,1,0,1.4142133,0,1 @ F,0,1,1,0,1.4142133,0,1 @ F,0,0,1,0,0,0,1 @ F,0,0,1,0,0,0,1 @ F,0,0,1,0,0,0,1 @ F,0,0,1,0,1.4142133,0,1"
       radius="0"
       unit="px"
       method="auto"
       mode="F"
       chamfer_steps="1"
       flexible="false"
       use_knot_distance="true"
       apply_no_radius="true"
       apply_with_radius="true"
       only_selected="false"
       hide_knots="false" />
    <inkscape:path-effect
       effect="fillet_chamfer"
       id="path-effect9"
       is_visible="true"
       lpeversion="1"
       nodesatellites_param="F,0,0,1,0,0,0,1 @ F,0,0,1,0,0,0,1 @ F,0,0,1,0,0,0,1 @ F,0,0,1,0,0,0,1 @ F,0,0,1,0,0,0,1 @ F,0,0,1,0,0,0,1 @ F,0,0,1,0,0,0,1 @ F,0,0,1,0,0,0,1 @ F,0,0,1,0,0,0,1 @ F,0,0,1,0,0,0,1 @ F,0,0,1,0,0,0,1 @ F,0,0,1,0,0.99999741,0,1 @ F,0,0,1,0,0.99999804,0,1 @ F,0,0,1,0,0.99999804,0,1 @ F,0,0,1,0,0,0,1 @ F,0,0,1,0,0,0,1 @ F,0,0,1,0,0.99999822,0,1 @ F,0,0,1,0,0.99999822,0,1 @ F,0,0,1,0,0,0,1 @ F,0,0,1,0,0,0,1 @ F,0,0,1,0,1.0000004,0,1 @ F,0,0,1,0,1.0000004,0,1 @ F,0,0,1,0,0,0,1 @ F,0,0,1,0,0,0,1 @ F,0,0,1,0,0.99999958,0,1 @ F,0,0,1,0,1.0000022,0,1 @ F,0,0,1,0,0,0,1 @ F,0,0,1,0,1.0000027,0,1 @ F,0,0,1,0,1.0000027,0,1 @ F,0,0,1,0,1.0000002,0,1 @ F,0,0,1,0,1.0000022,0,1 @ F,0,0,1,0,1.0000027,0,1 @ F,0,0,1,0,0,0,1 @ F,0,0,1,0,0,0,1 @ F,0,0,1,0,0.99999958,0,1 @ F,0,0,1,0,0.99999958,0,1 @ F,0,0,1,0,0,0,1 @ F,0,0,1,0,0,0,1 @ F,0,0,1,0,0,0,1 @ F,0,0,1,0,1.0000031,0,1 @ F,0,0,1,0,1.0000002,0,1 @ F,0,0,1,0,1.0000031,0,1 @ F,0,0,1,0,0,0,1 @ F,0,0,1,0,0,0,1 @ F,0,0,1,0,0,0,1 @ F,0,0,1,0,0,0,1 @ F,0,0,1,0,0,0,1 @ F,0,0,1,0,2.0961693,0,1"
       radius="0"
       unit="px"
       method="auto"
       mode="F"
       chamfer_steps="1"
       flexible="false"
       use_knot_distance="true"
       apply_no_radius="true"
       apply_with_radius="true"
       only_selected="false"
       hide_knots="false" />
    <inkscape:path-effect
       effect="fillet_chamfer"
       id="path-effect8"
       is_visible="true"
       lpeversion="1"
       nodesatellites_param="F,0,0,1,0,2.9999998,0,1 @ F,0,0,1,0,3.0000002,0,1 @ F,0,0,1,0,2.9999981,0,1 @ F,0,0,1,0,2.9999996,0,1"
       radius="0"
       unit="px"
       method="auto"
       mode="F"
       chamfer_steps="1"
       flexible="false"
       use_knot_distance="true"
       apply_no_radius="true"
       apply_with_radius="true"
       only_selected="false"
       hide_knots="false" />
  </defs>
  <g
     inkscape:label="Layer 1"
     inkscape:groupmode="layer"
     id="layer1">
    <path
       d="m 60.000001,30.000001 -7.470176,3.735088 a 4.5764946,4.5764946 121.71747 0 0 -2.529824,4.093341 v 14.171571 a 4.8541021,4.8541021 58.282526 0 0 2.683282,4.341641 l 7.316718,3.658359 -7.470176,3.735088 a 4.5764946,4.5764946 121.71747 0 0 -2.529824,4.093341 v 14.343143 a 4.5764946,4.5764946 58.282526 0 0 2.529824,4.093341 l 7.470176,3.735088 V 110 l -7.470176,3.73509 a 4.5764946,4.5764946 121.71747 0 0 -2.529824,4.09334 v 14.34314 a 4.5764946,4.5764946 58.282526 0 0 2.529824,4.09334 L 60.000001,140 l -7.470176,3.73509 a 4.5764946,4.5764946 121.71747 0 0 -2.529824,4.09334 v 14.34314 a 4.5764946,4.5764946 58.282526 0 0 2.529824,4.09334 L 60.000001,170 H 117 a 12.708204,12.708204 166.71747 0 0 5.68328,-1.34164 l 4.63344,-2.31672 A 4.8541021,4.8541021 121.71747 0 0 130,162 v -14 a 4.8541021,4.8541021 58.282526 0 0 -2.68328,-4.34164 L 120,140 l 7.31672,-3.65836 A 4.8541021,4.8541021 121.71747 0 0 130,132 v -14 a 4.8541021,4.8541021 58.282526 0 0 -2.68328,-4.34164 L 120,110 V 90.000002 l 7.31672,-3.658359 A 4.8541021,4.8541021 121.71747 0 0 130,82.000002 V 68.000001 A 4.8541021,4.8541021 58.282526 0 0 127.31672,63.65836 L 120,60.000001 127.31672,56.341642 A 4.8541021,4.8541021 121.71747 0 0 130,52.000001 v -14 A 4.8541021,4.8541021 58.282526 0 0 127.31672,33.65836 L 120,30.000001 Z"
       style="display:inline;fill:#fcfcfc;fill-opacity:1;stroke:#000000;stroke-width:2.42222"
       id="path3"
       sodipodi:nodetypes="ccccccccccccccccccccccccccccc"
       inkscape:label="wheels"
       inkscape:path-effect="#path-effect11"
       inkscape:original-d="m 60.000001,30.000001 -10,5 v 20 l 10,5 -10,5 v 20.000001 l 10,5 V 110 l -10,5 v 20 l 10,5 -10,5 v 20 l 10,5 59.999999,0 10,-5 0,-20 -10,-5 10,-5 0,-20 -10,-5 V 90.000002 l 10,-5 0,-20.000001 -10,-5 10,-5 0,-20 -10,-5 z" />
    <path
       d="m 50.000001,25 10,10.000001 V 165 L 50.262524,175.54388 55.000001,180 H 125 l 5,-5 -10,-10 V 35.000001 L 130,25 115,5.0000001 l -49.999999,0 z"
       style="display:inline;fill:#fcfcfc;stroke:#000000;stroke-width:2.42222;fill-opacity:1"
       id="path1"
       sodipodi:nodetypes="ccccccccccccc"
       inkscape:label="body" />
    <path
       d="m 70.000001,66.414214 v 12.171574 a 3.4142132,3.4142132 67.500001 0 0 1,2.414213 l 8,8.000001 a 3.4142127,3.4142127 22.500001 0 0 2.414213,1 h 17.171573 a 3.4142127,3.4142127 157.5 0 0 2.414213,-1 l 8,-8.000001 a 3.4142132,3.4142132 112.5 0 0 1,-2.414213 V 66.414214 a 3.4142129,3.4142129 67.5 0 0 -1,-2.414213 l -8,-8 a 3.4142129,3.4142129 22.5 0 0 -2.414213,-1 l -8.585785,0 V 10 55.000001 h -8.585788 a 3.4142129,3.4142129 157.5 0 0 -2.414213,1 l -8,8 a 3.4142129,3.4142129 112.5 0 0 -1,2.414213 z"
       style="display:inline;fill:#fcfcfc;fill-opacity:1;stroke:#000000;stroke-width:2.42222"
       id="path4"
       sodipodi:nodetypes="cccccccccccc"
       inkscape:label="turret"
       inkscape:path-effect="#path-effect10"
       inkscape:original-d="m 70.000001,65.000001 v 15 l 10,10.000001 H 100 l 10,-10.000001 v -15 l -10,-10 h -9.999998 l 0,-45.000001 0,45.000001 H 80.000001 Z" />
    <path
       d="M 65.000001,98.000002 V 107 a 3.0000002,3.0000002 45 0 0 3,3 h 9.000002 a 2.9999981,2.9999981 135 0 0 2.999998,-3 v -8.999998 a 2.9999996,2.9999996 45 0 0 -3,-3 l -9,0 a 2.9999998,2.9999998 135 0 0 -3,3 z"
       style="display:inline;fill:#fcfcfc;fill-opacity:1;stroke:#000000;stroke-width:1.81667"
       id="path11"
       sodipodi:nodetypes="ccccc"
       inkscape:label="top_right_passenger_hatch"
       inkscape:path-effect="#path-effect13"
       inkscape:original-d="M 65.000001,95.000002 V 110 h 15 V 95.000002 Z"
       transform="translate(35.000001)" />
    <path
       d="M 65.000001,98.000002 V 107 a 3.0000002,3.0000002 45 0 0 3,3 h 9.000002 a 2.9999981,2.9999981 135 0 0 2.999998,-3 v -8.999998 a 2.9999996,2.9999996 45 0 0 -3,-3 l -9,0 a 2.9999998,2.9999998 135 0 0 -3,3 z"
       style="display:inline;fill:#fcfcfc;fill-opacity:1;stroke:#000000;stroke-width:1.81667"
       id="path6"
       sodipodi:nodetypes="ccccc"
       inkscape:label="top_left_passenger_hatch"
       inkscape:path-effect="#path-effect8"
       inkscape:original-d="m 65.000001,95.000002 0,14.999998 h 15 V 95.000002 Z" />
    <path
       d="m 80.000001,150 v -5 h 15.000001 v 5 H 111 95.000002 v 10 H 110 v 15 H 95.000002 V 145 H 109 a 0.99999741,0.99999741 135 0 0 1,-1 v -23 a 0.99999804,0.99999804 45 0 0 -1,-1 l -3,0 a 0.99999804,0.99999804 135 0 0 -1,1 v 24 h -5 v -24 a 0.99999822,0.99999822 45 0 0 -0.999998,-1 H 96 a 0.99999822,0.99999822 135 0 0 -0.999998,1 v 24 h -5 v -24 a 1.0000004,1.0000004 45 0 0 -1,-1 h -3 a 1.0000004,1.0000004 135 0 0 -1,1 l 0,24 h -5.000001 v -24 a 0.99999958,0.99999958 45 0 0 -1,-1 h -2.999998 a 1.0000022,1.0000022 135 0 0 -1.000002,1 v 24 h -3.999997 -5 a 1.0000027,1.0000027 45 0 1 -1.000003,-1 v -23 a 1.0000002,1.0000002 135 0 1 1,-1 h 2.999998 a 1.0000022,1.0000022 45 0 1 1.000002,1 v 23 a 1.0000027,1.0000027 45 0 0 1.000003,1 h 8.999997 v 5 h -14 a 0.99999958,0.99999958 135 0 0 -1,1 v 8 a 0.99999958,0.99999958 45 0 0 1,1 h 19.000001 v 5 5 H 66.000004 a 1.0000031,1.0000031 135 0 0 -1.000003,1 v 3 a 1.0000002,1.0000002 45 0 0 1,1 h 22.999998 a 1.0000031,1.0000031 135 0 0 1.000003,-1 v -4 -25 25 h -5 v -5 -7.90383 a 5.0605996,5.0605996 67.499997 0 0 -1.482216,-3.57839 z"
       style="display:inline;fill:#fcfcfc;fill-opacity:1;stroke:#000000;stroke-width:2.42222"
       id="path5"
       sodipodi:nodetypes="cccccccccsccccccccccccccccccccccccccccccccccccccc"
       inkscape:label="top_rear_detail"
       inkscape:path-effect="#path-effect9"
       inkscape:original-d="m 80.000001,150 v -5 h 15.000001 v 5 H 111 95.000002 v 10 H 110 v 15 H 95.000002 V 145 H 110 v -25 h -5 v 25 h -5 v -25 h -4.999998 v 25 h -5 v -25 h -5 v 25 h -5.000001 v -25 h -5 v 25 h -5 -5 v -25 h 5 v 25 h 10 v 5 h -15 v 10 h 20.000001 v 5 5 H 65.000001 v 5 h 25.000001 v -5 -25 25 h -5 v -5 -10 z"
       transform="translate(2.6458334)" />
    <path
       d="m 65.000001,102 v 1 a 6.9999998,6.9999998 45 0 0 7,7 h 1 a 6.9999998,6.9999998 135 0 0 7,-7 v -1 a 6.9999998,6.9999998 45 0 0 -7,-6.999998 h -1 a 6.9999998,6.9999998 135 0 0 -7,6.999998 z"
       style="display:inline;fill:#fcfcfc;fill-opacity:1;stroke:#000000;stroke-width:1.81667"
       id="path13"
       sodipodi:nodetypes="ccccc"
       inkscape:label="top_front_right_head_hatch"
       inkscape:path-effect="#path-effect15"
       inkscape:original-d="M 65.000001,95.000002 V 110 h 15 V 95.000002 Z"
       transform="translate(30.000001,-58.000001)" />
    <path
       d="m 65.000001,102 v 1 a 6.9999998,6.9999998 45 0 0 7,7 h 1 a 6.9999998,6.9999998 135 0 0 7,-7 v -1 a 6.9999998,6.9999998 45 0 0 -7,-6.999998 h -1 a 6.9999998,6.9999998 135 0 0 -7,6.999998 z"
       style="display:inline;fill:#fcfcfc;fill-opacity:1;stroke:#000000;stroke-width:1.81667"
       id="path15"
       sodipodi:nodetypes="ccccc"
       inkscape:label="top_front_left_head_hatch"
       inkscape:path-effect="#path-effect17"
       inkscape:original-d="M 65.000001,95.000002 V 110 h 15 V 95.000002 Z"
       transform="translate(5.0000001,-58.000001)" />
    <path
       d="m 65.133338,104.5 v 4 a 1.9999984,1.9999984 45 0 0 1.999998,2 l 12.000002,0 a 1.9999984,1.9999984 135 0 0 1.999998,-2 v -4 a 1.9999984,1.9999984 45 0 0 -1.999998,-2 H 67.133336 a 1.9999984,1.9999984 135 0 0 -1.999998,2 z"
       style="display:inline;fill:#fcfcfc;fill-opacity:1;stroke:#000000;stroke-width:1.81667"
       id="path19"
       sodipodi:nodetypes="ccccc"
       inkscape:label="front_right_driving_hatch"
       inkscape:path-effect="#path-effect21"
       inkscape:original-d="m 65.133338,102.5 v 8 h 15.999998 v -8 z"
       transform="matrix(0.93750013,0,0,1,33.937489,-77.5)" />
    <path
       d="m 65.000003,104.5 v 4 a 1.9999984,1.9999984 45 0 0 1.999998,2 l 12.000002,0 a 1.9999984,1.9999984 135 0 0 1.999998,-2 v -4 a 1.9999984,1.9999984 45 0 0 -1.999998,-2 H 67.000001 a 1.9999984,1.9999984 135 0 0 -1.999998,2 z"
       style="display:inline;fill:#fcfcfc;fill-opacity:1;stroke:#000000;stroke-width:1.81667"
       id="path17"
       sodipodi:nodetypes="ccccc"
       inkscape:label="front_left_driving_hatch"
       transform="matrix(0.93750014,0,0,1,9.0624903,-77.500001)"
       inkscape:original-d="m 65.000003,102.5 v 8 l 15.999998,0 0,-8 z"
       inkscape:path-effect="#path-effect19" />
  </g>
</svg>
